<svg width="128" height="128" viewBox="0 0 128 128" fill="none" xmlns="http://www.w3.org/2000/svg">
<g clip-path="url(#clip0_8_130)">
<path d="M106.105 64C106.105 87.2541 87.2541 106.105 64 106.105C40.7459 106.105 21.8947 87.2541 21.8947 64C21.8947 40.7459 40.7459 21.8947 64 21.8947C87.2541 21.8947 106.105 40.7459 106.105 64ZM38.7368 64C38.7368 77.9525 50.0475 89.2632 64 89.2632C77.9525 89.2632 89.2632 77.9525 89.2632 64C89.2632 50.0475 77.9525 38.7368 64 38.7368C50.0475 38.7368 38.7368 50.0475 38.7368 64Z" fill="black"/>
<path d="M53.0526 5.05263C53.0526 2.26214 55.3148 0 58.1053 0H69.8947C72.6852 0 74.9474 2.26214 74.9474 5.05263V33.6842C74.9474 36.4747 72.6852 38.7368 69.8947 38.7368H58.1053C55.3148 38.7368 53.0526 36.4747 53.0526 33.6842V5.05263Z" fill="black"/>
<path d="M53.0526 94.3158C53.0526 91.5253 55.3148 89.2632 58.1053 89.2632H69.8947C72.6852 89.2632 74.9474 91.5253 74.9474 94.3158V122.947C74.9474 125.738 72.6852 128 69.8947 128H58.1053C55.3148 128 53.0526 125.738 53.0526 122.947V94.3158Z" fill="black"/>
<path d="M5.05263 74.9474C2.26214 74.9474 0 72.6852 0 69.8947V58.1053C0 55.3148 2.26214 53.0526 5.05263 53.0526H33.6842C36.4747 53.0526 38.7368 55.3148 38.7368 58.1053V69.8947C38.7368 72.6852 36.4747 74.9474 33.6842 74.9474H5.05263Z" fill="black"/>
<path d="M94.3158 74.9474C91.5253 74.9474 89.2632 72.6852 89.2632 69.8947V58.1053C89.2632 55.3148 91.5253 53.0526 94.3158 53.0526H122.947C125.738 53.0526 128 55.3148 128 58.1053V69.8947C128 72.6852 125.738 74.9474 122.947 74.9474H94.3158Z" fill="black"/>
<path d="M14.577 30.0589C12.6038 28.0857 12.6038 24.8865 14.577 22.9134L22.9134 14.577C24.8865 12.6038 28.0857 12.6038 30.0589 14.577L50.3045 34.8225C52.2776 36.7957 52.2776 39.9949 50.3045 41.968L41.968 50.3045C39.9949 52.2776 36.7957 52.2776 34.8225 50.3045L14.577 30.0589Z" fill="black"/>
<path d="M77.6955 93.1775C75.7224 91.2043 75.7224 88.0051 77.6955 86.032L86.032 77.6955C88.0051 75.7224 91.2043 75.7224 93.1775 77.6955L113.423 97.9411C115.396 99.9143 115.396 103.113 113.423 105.087L105.087 113.423C103.113 115.396 99.9143 115.396 97.9411 113.423L77.6955 93.1775Z" fill="black"/>
<path d="M97.9411 14.577C99.9143 12.6038 103.113 12.6038 105.087 14.577L113.423 22.9134C115.396 24.8866 115.396 28.0857 113.423 30.0589L93.1775 50.3045C91.2043 52.2776 88.0051 52.2776 86.032 50.3045L77.6955 41.968C75.7224 39.9949 75.7224 36.7957 77.6955 34.8225L97.9411 14.577Z" fill="black"/>
<path d="M34.8225 77.6956C36.7957 75.7224 39.9949 75.7224 41.968 77.6956L50.3045 86.032C52.2776 88.0051 52.2776 91.2043 50.3045 93.1775L30.0589 113.423C28.0857 115.396 24.8866 115.396 22.9134 113.423L14.577 105.087C12.6038 103.113 12.6038 99.9143 14.577 97.9411L34.8225 77.6956Z" fill="black"/>
</g>
<defs>
<clipPath id="clip0_8_130">
<rect width="128" height="128" fill="white"/>
</clipPath>
</defs>
</svg>
