<svg width="128" height="128" viewBox="0 0 128 128" fill="none" xmlns="http://www.w3.org/2000/svg">
<g clip-path="url(#clip0_8_130)">
<path d="M112.632 33.6871C104.498 38.3835 94.0517 35.5187 89.2999 27.2885C84.5482 19.0582 87.2903 8.57914 95.4247 3.88279C103.559 -0.813565 114.005 2.05122 118.757 10.2815C123.509 18.5117 120.767 28.9908 112.632 33.6871Z" fill="black"/>
<path d="M33.7285 67.3902C24.0957 72.9517 11.7252 69.5592 6.09818 59.8128C0.471128 50.0665 3.71839 37.657 13.3511 32.0956C22.9839 26.5341 35.3544 29.9266 40.9814 39.673C46.6085 49.4193 43.3612 61.8287 33.7285 67.3902Z" fill="black"/>
<path d="M101.661 91.9613C93.8831 96.4517 83.8951 93.7125 79.3518 85.8433C74.8084 77.974 77.4303 67.9545 85.2078 63.4641C92.9854 58.9738 102.973 61.7129 107.517 69.5822C112.06 77.4514 109.438 87.4709 101.661 91.9613Z" fill="black"/>
<path d="M51.6178 120.156C44.4825 124.276 35.3191 121.763 31.1509 114.543C26.9828 107.324 29.3881 98.1318 36.5235 94.0122C43.6589 89.8926 52.8222 92.4055 56.9904 99.6251C61.1586 106.845 58.7532 116.037 51.6178 120.156Z" fill="black"/>
<path d="M92.7836 69.1265L88.2389 81.1888L27.4096 57.4699L31.9543 45.4076L92.7836 69.1265Z" fill="black"/>
<path d="M41.3998 116.923L34.7155 105.795L90.2744 72.391L96.9587 83.5188L41.3998 116.923Z" fill="black"/>
<path d="M97.073 16.5261L109.791 18.6223L99.9136 83.1607L87.1951 81.0645L97.073 16.5261Z" fill="black"/>
</g>
<defs>
<clipPath id="clip0_8_130">
<rect width="128" height="128" fill="white"/>
</clipPath>
</defs>
</svg>
